<svg xmlns="http://www.w3.org/2000/svg" width="80" height="80" fill="none"><g filter="url(#a)"><rect width="48" height="48" x="16" y="16" fill="#fff" rx="8"/><path fill="#464B53" d="M36.5 31.833a1.167 1.167 0 1 0 0 2.333 1.167 1.167 0 0 0 0-2.333Zm-3.301 0a3.5 3.5 0 0 1 6.603 0h8.365a1.167 1.167 0 1 1 0 2.334h-8.365a3.5 3.5 0 0 1-6.603 0h-1.365a1.167 1.167 0 1 1 0-2.334h1.365Zm10.301 7a1.167 1.167 0 1 0 0 2.333 1.167 1.167 0 0 0 0-2.333Zm-3.301 0a3.5 3.5 0 0 1 6.603 0h1.365a1.167 1.167 0 1 1 0 2.334h-1.365a3.5 3.5 0 0 1-6.603 0h-8.365a1.167 1.167 0 1 1 0-2.334h8.365Zm-3.699 7a1.167 1.167 0 1 0 0 2.333 1.167 1.167 0 0 0 0-2.333Zm-3.301 0a3.5 3.5 0 0 1 6.603 0h8.365a1.167 1.167 0 1 1 0 2.334h-8.365a3.5 3.5 0 0 1-6.603 0h-1.365a1.167 1.167 0 1 1 0-2.334h1.365Z"/></g><defs><filter id="a" width="80" height="80" x="0" y="0" color-interpolation-filters="sRGB" filterUnits="userSpaceOnUse"><feFlood flood-opacity="0" result="BackgroundImageFix"/><feColorMatrix in="SourceAlpha" result="hardAlpha" values="0 0 0 0 0 0 0 0 0 0 0 0 0 0 0 0 0 0 127 0"/><feOffset/><feGaussianBlur stdDeviation="8"/><feComposite in2="hardAlpha" operator="out"/><feColorMatrix values="0 0 0 0 0 0 0 0 0 0 0 0 0 0 0 0 0 0 0.2 0"/><feBlend in2="BackgroundImageFix" result="effect1_dropShadow_1915_49263"/><feBlend in="SourceGraphic" in2="effect1_dropShadow_1915_49263" result="shape"/></filter></defs></svg>