<svg xmlns="http://www.w3.org/2000/svg" width="143" height="72" fill="none" viewBox="0 0 143 72"><g filter="url(#a)"><rect width="111" height="40" x="16" y="16" fill="#fff" rx="20" shape-rendering="crispEdges"/><path stroke="#464B53" stroke-linecap="round" stroke-linejoin="round" stroke-width="1.5" d="M35.333 30.166h13.333M35.333 36h13.333m-13.333 5.833h13.333"/><path fill="#464B53" d="M71.016 34.732h-3.619v1.275h5.157v1.509H60.395v-1.51h5.127v-1.274h-3.618v-4.687h9.112v4.687Zm-9.273 3.765h9.331v4.35h-1.86v-2.885h-7.47v-1.465Zm7.442-5.23v-1.772h-5.45v1.773h5.45Zm16.062 4.893H73.045v-1.494h5.17v-.967h-3.647v-3.662h7.324v-.82H74.54v-1.45h9.228v3.618H76.43v.879h7.587v1.435h-3.94v.967h5.17v1.494Zm-10.84.762h9.434v3.867h-1.89v-2.402h-7.544v-1.465Zm23.518 2.373H85.723v-1.523h5.142V37.31h-3.853v-6.943h1.875v2.066h5.816v-2.066h1.86v6.943h-3.838v2.462h5.2v1.523Zm-3.222-5.479v-1.89h-5.816v1.89h5.816Zm14.89 7.032h-1.889v-13.33h1.889v13.33Zm-11.162-3.78c1.138-.537 2.075-1.135 2.813-1.794.742-.66 1.308-1.39 1.699-2.19.395-.806.644-1.709.747-2.71h-4.541v-1.465h6.445c-.005 1.426-.198 2.722-.578 3.89-.381 1.166-1.028 2.238-1.941 3.215-.909.976-2.129 1.826-3.663 2.548l-.98-1.494Z"/></g><defs><filter id="a" width="143" height="72" x="0" y="0" color-interpolation-filters="sRGB" filterUnits="userSpaceOnUse"><feFlood flood-opacity="0" result="BackgroundImageFix"/><feColorMatrix in="SourceAlpha" result="hardAlpha" values="0 0 0 0 0 0 0 0 0 0 0 0 0 0 0 0 0 0 127 0"/><feOffset/><feGaussianBlur stdDeviation="8"/><feComposite in2="hardAlpha" operator="out"/><feColorMatrix values="0 0 0 0 0 0 0 0 0 0 0 0 0 0 0 0 0 0 0.16 0"/><feBlend in2="BackgroundImageFix" result="effect1_dropShadow_1889_45526"/><feBlend in="SourceGraphic" in2="effect1_dropShadow_1889_45526" result="shape"/></filter></defs></svg>